<?xml version="1.0" encoding="utf-8"?>
<!-- Generator: Adobe Illustrator 15.1.0, SVG Export Plug-In . SVG Version: 6.00 Build 0)  -->
<!DOCTYPE svg PUBLIC "-//W3C//DTD SVG 1.1 Tiny//EN" "http://www.w3.org/Graphics/SVG/1.1/DTD/svg11-tiny.dtd">
<svg version="1.1" baseProfile="tiny" id="Layer_1" xmlns="http://www.w3.org/2000/svg" xmlns:xlink="http://www.w3.org/1999/xlink"
	 x="0px" y="0px" width="681px" height="214px" viewBox="0 0 681 214" xml:space="preserve">
<g>
	<g>
		<path fill="#333333" d="M259.701,120.983c-1.296,0-1.944,0-5.184-0.324v39.853H223.25V53.752
			c9.558-4.05,22.194-6.642,36.774-6.642c33.373,0,46.008,16.848,46.008,36.774C306.033,104.945,291.777,120.983,259.701,120.983z
			 M260.349,65.092c-2.106,0-4.212,0.324-5.832,0.81v36.612c3.564,0.324,4.05,0.324,5.184,0.324c11.502,0,15.876-7.29,15.876-19.116
			S271.527,65.092,260.349,65.092z"/>
		<path fill="#333333" d="M353.339,162.456c-26.893,0-40.824-9.396-40.824-28.35c0-21.871,22.518-28.351,48.763-30.781v-3.24
			c0-6.642-4.536-9.559-13.122-9.559c-8.263,0-17.82,2.592-24.139,5.508l-6.48-17.82c9.559-3.888,23.005-6.966,35.479-6.966
			c22.519,0,37.099,9.072,37.099,33.696v50.869C382.337,159.702,369.539,162.456,353.339,162.456z M361.277,117.257
			c-14.095,1.458-20.089,6.156-20.089,15.552c0,8.586,4.86,12.636,13.446,12.636c2.754,0,5.022-0.324,6.643-1.134V117.257z"/>
		<path fill="#333333" d="M444.383,195.342h-32.077l14.58-34.831l-29.322-87.319h33.211l9.072,46.495
			c0.972,5.346,1.458,9.072,1.943,14.904h0.324c0.648-5.67,1.134-9.396,2.431-14.904l10.691-46.495h29.809L444.383,195.342z"/>
		<path fill="#333333" d="M489.9,160.512l26.245-67.555h-23.49V73.192h61.398l-25.435,67.555h25.759v19.764H489.9z"/>
		<path fill="#333333" d="M605.082,162.456c-26.893,0-40.824-9.396-40.824-28.35c0-21.871,22.518-28.351,48.763-30.781v-3.24
			c0-6.642-4.536-9.559-13.122-9.559c-8.263,0-17.82,2.592-24.139,5.508l-6.48-17.82c9.559-3.888,23.005-6.966,35.479-6.966
			c22.519,0,37.099,9.072,37.099,33.696v50.869C634.08,159.702,621.282,162.456,605.082,162.456z M613.021,117.257
			c-14.095,1.458-20.089,6.156-20.089,15.552c0,8.586,4.86,12.636,13.446,12.636c2.754,0,5.022-0.324,6.643-1.134V117.257z"/>
	</g>
	<g>
		<path fill="#333333" d="M648.836,72.61V82h-1.381v-9.39h-2.174v-0.93h5.729v0.93H648.836z"/>
		<path fill="#333333" d="M660.625,82l-0.779-7.725c-0.045-0.375-0.061-0.78-0.076-1.215h-0.029c-0.045,0.24-0.18,0.84-0.285,1.215
			L657.25,82h-0.885l-2.176-7.725c-0.104-0.39-0.164-0.63-0.285-1.215h-0.029c-0.016,0.51-0.045,0.885-0.074,1.215L652.99,82h-1.186
			l1.23-10.32h1.455l2.1,7.44c0.121,0.42,0.195,0.78,0.27,1.275h0.031c0.074-0.495,0.148-0.855,0.27-1.275l2.1-7.44h1.471
			L661.945,82H660.625z"/>
	</g>
	<path fill="#44A32E" d="M154.126,38.536c-13.691-13.742-35.414-22.625-59.877-22.625c-35.368,0-64.053,15.376-72.923,43.547
		c-1.109,5.095-1.791,10.377-2.001,15.797c-0.047,1.195-0.075,2.395-0.075,3.602c0,44.881,32.81,82.319,72.678,82.491
		c0.453,0.002,2.952-0.04,2.977-1.101c0.02-0.828-3.336-1.785-3.336-1.785c-11.744-3.361-21.035-11.623-23.909-23.471
		c-0.334-1.379-0.582-2.793-0.736-4.238c-0.016-0.149-0.035-0.299-0.048-0.449c-0.104-4.172,0.027-4.432,4.488-3.355
		c0.063,0.015,0.125,0.029,0.188,0.045c0.791,0.189,1.583,0.375,2.385,0.546c6.462,1.376,13.272,2.122,20.314,2.122
		c14.153,0,27.389-2.977,38.685-8.143c12.346-5.646,22.367-13.916,28.732-23.789c4.854-7.531,7.584-15.996,7.584-24.944
		C169.25,59.924,163.619,48.063,154.126,38.536z M115.129,97.459c-7.326,3.012-16.108,4.77-25.555,4.77
		c-3.984,0-7.469-0.313-10.516-0.898C62.542,98.147,58.97,86.879,58.97,73.47c0-13.681,8.193-26.479,30.039-27.382
		c28.543-1.18,46.909,11.498,46.909,27.382C135.917,83.491,127.655,92.311,115.129,97.459z"/>
</g>
</svg>
